<svg width="678" height="131" viewBox="0 0 678 131" fill="none" xmlns="http://www.w3.org/2000/svg">
<path d="M23.28 0.779993V48.24C23.28 53.0933 22.16 56.92 19.92 59.72C17.7733 62.4267 14.74 63.78 10.82 63.78H1.02C0.46 63.78 0.18 63.4533 0.18 62.8V55.66C0.18 55.0067 0.553333 54.68 1.3 54.68H2C4.24 54.68 5.54667 54.2133 5.92 53.28C6.29333 52.16 6.48 50.8533 6.48 49.36V15.76C6.48 10.44 7.41333 6.61333 9.28 4.28C11.24 1.94666 14.46 0.779993 18.94 0.779993H23.28ZM26.92 116.84H33.22C35.5533 116.84 37.42 117.54 38.82 118.94C40.22 120.34 40.92 122.16 40.92 124.4V130.28H26.92V116.84ZM0.18 68.4C0.18 67.7467 0.413334 67.42 0.88 67.42H10.82C14.74 67.42 17.7733 68.82 19.92 71.62C22.16 74.3267 23.28 78.1067 23.28 82.96V130.42H18.94C14.46 130.42 11.24 129.253 9.28 126.92C7.41333 124.587 6.48 120.76 6.48 115.44V81.84C6.48 78.9467 5.87333 77.2667 4.66 76.8C4.00667 76.6133 3.12 76.52 2 76.52H1.3C0.553333 76.52 0.18 76.1933 0.18 75.54V68.4ZM40.92 0.779993V6.65999C40.92 8.9 40.22 10.72 38.82 12.12C37.42 13.52 35.5533 14.22 33.22 14.22H26.92V0.779993H40.92ZM104.723 102H90.0228C86.8495 102 84.7495 101.487 83.7228 100.46C82.7895 99.4333 82.3228 97.2867 82.3228 94.02V8.76C82.3228 5.49333 82.7895 3.34666 83.7228 2.32C84.7495 1.29333 86.8495 0.779993 90.0228 0.779993H104.723V102ZM147.983 82.4V94.3C147.983 97.4733 147.469 99.5733 146.443 100.6C145.416 101.533 143.269 102 140.003 102H110.323V82.4H147.983ZM139.583 41.1V49.5C139.583 52.86 139.256 55.0067 138.603 55.94C137.949 56.78 136.083 57.2 133.003 57.2H110.323V41.1H139.583ZM146.583 0.779993V12.68C146.583 15.8533 146.069 17.9533 145.043 18.98C144.016 19.9133 141.869 20.38 138.603 20.38H110.323V0.779993H146.583ZM180.757 32V57.62C180.757 59.2067 180.99 60.3267 181.457 60.98C181.924 61.54 183.137 61.82 185.097 61.82H192.937V72.32H175.017C164.844 72.32 159.757 67.3267 159.757 57.34V47.54C159.757 41.38 161.297 37.2733 164.377 35.22C167.55 33.0733 173.01 32 180.757 32ZM181.037 79.88V87.3C181.037 88.8867 181.27 90.0067 181.737 90.66C182.204 91.22 183.417 91.5 185.377 91.5H192.937V102H175.297C165.124 102 160.037 97.0067 160.037 87.02V82.82C160.037 81.42 160.177 80.6267 160.457 80.44C160.83 80.2533 161.064 80.16 161.157 80.16C161.25 80.0667 161.484 80.02 161.857 80.02C162.324 79.9267 162.604 79.88 162.697 79.88C168.857 79.88 174.97 79.88 181.037 79.88ZM197.137 61.82H202.877C213.05 61.82 218.137 66.8133 218.137 76.8V86.46C218.137 92.62 216.55 96.7733 213.377 98.92C210.297 100.973 204.884 102 197.137 102V61.82ZM184.957 32H202.597C212.77 32 217.857 36.9933 217.857 46.98V54.26C211.604 54.26 206.844 54.26 203.577 54.26C200.31 54.26 198.63 54.26 198.537 54.26C198.444 54.1667 198.257 54.12 197.977 54.12C197.79 54.0267 197.65 53.9333 197.557 53.84C197.464 53.7467 197.37 53.6533 197.277 53.56C197.184 53.3733 197.137 53.1867 197.137 53C196.95 52.2533 196.857 51.6933 196.857 51.32V46.7C196.857 45.1133 196.624 44.04 196.157 43.48C195.69 42.8267 194.477 42.5 192.517 42.5H184.957V32ZM268.094 100.88C268.094 101.44 267.814 101.813 267.254 102H256.614C249.801 102 244.854 100.647 241.774 97.94C238.694 95.2333 237.154 90.4733 237.154 83.66V42.78H230.014C227.681 42.78 226.514 41.38 226.514 38.58V32H237.154V0.779993H245.694C249.801 0.779993 252.881 1.80666 254.934 3.86C257.081 5.91333 258.154 8.52666 258.154 11.7V86.18C258.154 89.6333 260.114 91.36 264.034 91.36H266.974C267.721 91.36 268.094 91.6867 268.094 92.34V100.88ZM272.434 32V38.58C272.434 41.38 271.267 42.78 268.934 42.78H261.654V32H272.434ZM281.616 32.14H290.156C294.263 32.14 297.343 33.1667 299.396 35.22C301.543 37.18 302.616 39.7467 302.616 42.92V102H286.656C285.163 102 283.949 101.487 283.016 100.46C282.083 99.4333 281.616 98.08 281.616 96.4V32.14ZM282.596 2.32C283.623 1.29333 286.609 0.779993 291.556 0.779993C296.503 0.779993 299.489 1.29333 300.516 2.32C301.543 3.25333 302.056 6.05333 302.056 10.72C302.056 15.3867 301.496 18.2333 300.376 19.26C299.349 20.2867 296.409 20.8 291.556 20.8C286.703 20.8 283.716 20.2867 282.596 19.26C281.569 18.2333 281.056 15.3867 281.056 10.72C281.056 6.05333 281.569 3.25333 282.596 2.32ZM374.247 32V80.16C374.247 90.6133 370.934 97.24 364.307 100.04C361.414 101.347 357.774 102 353.387 102H348.347V91.5C351.614 91.5 353.247 89.1667 353.247 84.5V37.74C353.247 33.9133 354.927 32 358.287 32H374.247ZM318.247 32H334.207C337.567 32 339.247 33.9133 339.247 37.74V84.5C339.247 89.1667 340.88 91.5 344.147 91.5V102H339.107C330.334 102 324.547 99.5733 321.747 94.72C319.414 90.8933 318.247 86.04 318.247 80.16V32ZM410.754 102H410.474C401.234 102 395.541 100.413 393.394 97.24C392.367 95.7467 391.527 94.3 390.874 92.9C390.314 91.5 389.941 89.3067 389.754 86.32C389.287 80.9067 389.054 74.8867 389.054 68.26C389.054 61.6333 389.101 56.8733 389.194 53.98C389.287 50.9933 389.567 48.0067 390.034 45.02C390.594 41.94 391.294 39.7467 392.134 38.44C392.974 37.04 394.234 35.78 395.914 34.66C397.594 33.54 399.554 32.84 401.794 32.56C404.034 32.1867 406.927 32 410.474 32H410.754V102ZM447.994 79.88V87.02C447.994 97.0067 442.907 102 432.734 102H415.094V91.5H422.654C424.614 91.5 425.827 91.22 426.294 90.66C426.761 90.0067 426.994 88.8867 426.994 87.3V82.82C426.994 81.42 427.134 80.6267 427.414 80.44C427.787 80.2533 428.021 80.16 428.114 80.16C428.207 80.0667 428.441 80.02 428.814 80.02C429.281 79.9267 429.607 79.88 429.794 79.88C435.861 79.88 441.927 79.88 447.994 79.88ZM415.094 32H431.334C437.774 32 442.161 33.26 444.494 35.78C446.827 38.3 447.994 42.0333 447.994 46.98V59.3C447.994 67.7 443.421 71.9 434.274 71.9H413.694V61.4H421.254C423.494 61.4 424.987 61.12 425.734 60.56C426.574 60 426.994 58.9267 426.994 57.34V46.7C426.994 45.1133 426.761 44.04 426.294 43.48C425.827 42.8267 424.614 42.5 422.654 42.5H415.094V32ZM487.268 32H506.868C517.042 32 522.128 36.9933 522.128 46.98V102H506.168C504.675 102 503.462 101.487 502.528 100.46C501.595 99.4333 501.128 98.08 501.128 96.4V46.7C501.128 45.2067 500.755 44.1333 500.008 43.48C499.355 42.8267 497.815 42.5 495.388 42.5H487.268V32ZM462.768 32H471.308C475.415 32 478.495 33.0267 480.548 35.08C482.695 37.04 483.768 39.6067 483.768 42.78V102H467.808C466.315 102 465.102 101.487 464.168 100.46C463.235 99.4333 462.768 98.08 462.768 96.4V32ZM562.6 32H582.2C592.374 32 597.46 36.9933 597.46 46.98V102H581.5C580.007 102 578.794 101.487 577.86 100.46C576.927 99.4333 576.46 98.08 576.46 96.4V46.7C576.46 45.2067 576.087 44.1333 575.34 43.48C574.687 42.8267 573.147 42.5 570.72 42.5H562.6V32ZM538.1 32H546.64C550.747 32 553.827 33.0267 555.88 35.08C558.027 37.04 559.1 39.6067 559.1 42.78V102H543.14C541.647 102 540.434 101.487 539.5 100.46C538.567 99.4333 538.1 98.08 538.1 96.4V32ZM677.56 62.8C677.56 63.4533 677.373 63.78 677 63.78H666.92C663 63.78 659.92 62.4267 657.68 59.72C655.533 56.92 654.46 53.0933 654.46 48.24V0.779993H658.8C663.28 0.779993 666.453 1.94666 668.32 4.28C670.28 6.61333 671.26 10.44 671.26 15.76V49.36C671.26 52.2533 671.867 53.9333 673.08 54.4C673.733 54.5867 674.62 54.68 675.74 54.68H676.44C677.187 54.68 677.56 55.0067 677.56 55.66V62.8ZM650.82 130.28H636.82V124.4C636.82 122.16 637.52 120.34 638.92 118.94C640.32 117.54 642.187 116.84 644.52 116.84H650.82V130.28ZM666.92 67.42H676.72C677.28 67.42 677.56 67.7467 677.56 68.4V75.54C677.56 76.1933 677.187 76.52 676.44 76.52H675.74C673.5 76.52 672.193 76.9867 671.82 77.92C671.447 79.04 671.26 80.3467 671.26 81.84V115.44C671.26 120.76 670.28 124.587 668.32 126.92C666.453 129.253 663.28 130.42 658.8 130.42H654.46V82.96C654.46 78.1067 655.533 74.3267 657.68 71.62C659.92 68.82 663 67.42 666.92 67.42ZM650.82 14.22H644.52C642.187 14.22 640.32 13.52 638.92 12.12C637.52 10.72 636.82 8.9 636.82 6.65999V0.779993H650.82V14.22Z" fill="#14A1F0"/>
</svg>
